<svg xmlns="http://www.w3.org/2000/svg" viewBox="0 0 64 64">
  <defs>
    <linearGradient id="grad" x1="0%" y1="0%" x2="100%" y2="100%">
      <stop offset="0%" style="stop-color:#3182ce"/>
      <stop offset="100%" style="stop-color:#5a67d8"/>
    </linearGradient>
  </defs>
  <!-- Background circle -->
  <circle cx="32" cy="32" r="30" fill="url(#grad)"/>
  <!-- Gear/CNC icon -->
  <g fill="white">
    <!-- Outer gear teeth -->
    <path d="M32 8 L34 14 L30 14 Z"/>
    <path d="M32 56 L34 50 L30 50 Z"/>
    <path d="M8 32 L14 34 L14 30 Z"/>
    <path d="M56 32 L50 34 L50 30 Z"/>
    <path d="M15 15 L20 19 L17 22 Z"/>
    <path d="M49 49 L44 45 L47 42 Z"/>
    <path d="M49 15 L44 19 L47 22 Z"/>
    <path d="M15 49 L20 45 L17 42 Z"/>
    <!-- Outer ring -->
    <circle cx="32" cy="32" r="18" fill="none" stroke="white" stroke-width="4"/>
    <!-- Inner circle -->
    <circle cx="32" cy="32" r="8" fill="white"/>
    <!-- Center dot -->
    <circle cx="32" cy="32" r="3" fill="#3182ce"/>
  </g>
</svg>
